<svg height="64" preserveAspectRatio="none" viewBox="0 0 64 64" width="64" xmlns="http://www.w3.org/2000/svg"><path d="m32.2861328 4.2124023c15.3369141 8.7636719 22.9716797 31.0053711 15.0380859 40.1977539l-21.6787109-21.2475585 7.3486328-7.3476563-8.7949219-1.7050781-12.1440429 12.1435547 5.25 5.25 5.6254883-5.6254883c3.8657227 4.2558594 12.1074219 13.2890625 19.9345703 21.6269531-5.2402344 2.0146485-13.3652344 1.1132813-24.9394531-4.6074219l-2.6088867 2.5341797c-.7304688-.1464844-1.4443359 0-1.9306641.4873047-.6464844.6455078-.7075195 1.6923828-.2519531 2.6474609-1.3476563 1.2519531-3.4580078 2.8759766-5.2705078 3.9033203-2.9306641 1.6601563-3.0283203 6.2529297-1.9536133 7.1103516 1.0742188.8574219 4.3959961-1.1503906 5.3730469-2.3232422.9770508-1.171875 2.7348633-4.5917969 3.2236328-6.1542969.1000977-.3203125.2421875-.5888672.3964844-.8310547.925293.4013672 1.918457.3271484 2.5405273-.2949219.6611328-.6611328.715332-1.7382813.2285156-2.7089844l.7416992-.6591797c12.8974609 10.3066406 23.5400391 11.3173828 30.6445313 7.4277344 1.9609375 2.0429688 3.7998047 3.9306641 5.4121094 5.5439453 4.1728516 0 4.1728516-4.0742188 4.1728516-4.0742188l-5.1220703-5.0214844c10.3017577-11.5273435 6.3037108-37.4096678-21.2353517-46.2719725z" fill="#e80000"/></svg>